<svg width="1099" height="798" viewBox="0 0 1099 798" fill="none" xmlns="http://www.w3.org/2000/svg">
<path d="M819.12 384.785C819.12 384.785 821.07 391.283 810.022 397.132C798.974 402.981 795.725 425.077 808.722 431.576C821.72 438.075 825.619 446.523 819.12 452.372C812.622 458.221 800.924 473.818 816.521 477.717C832.118 481.616 834.067 489.415 829.518 492.664C824.969 495.914 839.916 486.815 839.916 486.815C839.916 486.815 842.516 502.412 856.163 498.513C869.811 494.614 908.153 420.528 888.657 410.13C869.161 399.732 819.12 384.785 819.12 384.785Z" fill="#2F2E41"/>
<path d="M842.675 447.537C842.675 447.537 849.416 471.131 837.619 472.816C830.298 473.957 823.361 476.848 817.396 481.243L839.305 509.893H879.752L905.031 484.613C905.031 484.613 871.325 459.334 878.066 444.166C884.808 428.999 842.675 447.537 842.675 447.537Z" fill="#FFB9B9"/>
<path opacity="0.1" d="M842.675 447.537C842.675 447.537 849.416 471.131 837.619 472.816C830.298 473.957 823.361 476.848 817.396 481.243L839.305 509.893H879.752L905.031 484.613C905.031 484.613 871.325 459.334 878.066 444.166C884.808 428.999 842.675 447.537 842.675 447.537Z" fill="black"/>
<path d="M852.787 740.779L891.549 754.261L918.513 755.946L916.828 732.352L861.213 715.904L852.787 740.779Z" fill="#FFB9B9"/>
<path d="M902.503 735.723C902.503 735.723 902.503 759.317 905.874 759.317C909.244 759.317 954.747 754.261 968.23 759.317C981.712 764.373 1001.94 745.834 991.824 735.723C981.712 725.611 965.218 710.443 954.927 713.814C944.636 717.184 902.503 725.611 902.503 725.611V735.723Z" fill="#575A89"/>
<path d="M778.634 713.814C778.634 713.814 758.41 754.261 771.893 757.631C785.375 761.002 800.543 755.946 802.228 754.261C803.913 752.576 827.507 745.834 830.878 749.205C834.248 752.576 834.249 735.723 834.249 735.723L778.634 713.814Z" fill="#575A89"/>
<path d="M795.487 658.199C795.487 658.199 763.466 702.017 787.06 713.814C810.654 725.611 923.569 725.611 931.996 713.814C940.422 702.017 943.793 664.94 931.996 661.57C920.199 658.199 795.487 658.199 795.487 658.199Z" fill="#2F2E41"/>
<path opacity="0.2" d="M795.487 658.199C795.487 658.199 763.466 702.017 787.06 713.814C810.654 725.611 923.569 725.611 931.996 713.814C940.422 702.017 943.793 664.94 931.996 661.57C920.199 658.199 795.487 658.199 795.487 658.199Z" fill="black"/>
<path d="M856.157 459.334C877.565 459.334 894.919 441.98 894.919 420.572C894.919 399.165 877.565 381.81 856.157 381.81C834.75 381.81 817.396 399.165 817.396 420.572C817.396 441.98 834.75 459.334 856.157 459.334Z" fill="#FFB9B9"/>
<path d="M795.487 481.243L829.193 474.502C829.193 474.502 837.619 501.466 864.584 496.411C891.549 491.355 898.29 474.502 898.29 474.502C898.29 474.502 918.513 482.928 920.199 482.928C921.884 482.928 943.793 491.355 943.793 496.411C943.793 501.466 918.513 552.025 918.513 552.025L921.884 643.031L797.172 639.661L805.599 550.34L795.487 481.243Z" fill="#C98C48"/>
<path d="M776.948 525.061C776.948 525.061 766.837 614.381 773.578 621.122C780.319 627.864 807.284 646.402 807.284 646.402V626.178L793.801 600.899L807.284 541.914L776.948 525.061Z" fill="#FFB9B9"/>
<path d="M951.377 522.533C951.377 522.533 945.478 614.381 945.478 617.752C945.478 621.122 930.311 632.92 925.255 632.92C920.199 632.92 916.828 624.493 916.828 624.493L928.625 611.011L920.199 541.914L951.377 522.533Z" fill="#FFB9B9"/>
<path d="M935.366 651.458C935.366 651.458 1011.2 609.325 1012.89 651.458C1014.58 693.59 974.128 710.443 974.128 710.443C974.128 710.443 869.64 741.775 865.427 730.322C861.213 718.87 852.787 700.331 859.528 698.646C866.269 696.961 874.696 693.59 878.066 696.961C881.437 700.331 923.569 671.681 923.569 671.681L935.366 651.458Z" fill="#2F2E41"/>
<path opacity="0.2" d="M970.758 646.402C970.758 646.402 955.59 653.143 950.534 658.199C945.478 663.255 923.569 671.681 923.569 671.681" stroke="black" stroke-width="2" stroke-miterlimit="10"/>
<path d="M805.599 484.613L795.487 481.243C795.487 481.243 758.41 520.005 770.207 530.116C782.004 540.228 788.746 543.599 792.116 546.969C795.487 550.34 812.34 552.025 812.34 552.025L805.599 484.613Z" fill="#C98C48"/>
<path d="M928.625 493.04L943.793 496.41C943.793 496.41 955.59 521.69 958.961 525.06C962.331 528.431 953.905 526.746 948.849 533.487C943.793 540.228 938.737 552.025 928.625 552.025C918.513 552.025 905.031 535.172 905.031 535.172L928.625 493.04Z" fill="#C98C48"/>
<path d="M798.857 666.625C798.857 666.625 734.816 621.122 712.907 654.828C690.998 688.534 807.284 734.037 824.137 740.778C840.99 747.52 856.157 754.261 856.157 754.261C856.157 754.261 871.325 717.184 871.325 710.443C871.325 703.702 859.528 703.702 856.157 703.702C852.787 703.702 837.619 700.331 834.249 695.275C830.878 690.22 798.857 666.625 798.857 666.625Z" fill="#2F2E41"/>
<path opacity="0.2" d="M763.466 654.828C763.466 654.828 780.319 668.311 795.487 671.681C810.654 675.052 815.71 683.478 815.71 683.478" stroke="black" stroke-width="2" stroke-miterlimit="10"/>
<path d="M787.232 591.462L788.578 662.818C788.623 665.175 789.597 667.419 791.289 669.06C792.981 670.702 795.253 671.608 797.61 671.582L930.4 670.09C932.662 670.064 934.831 669.181 936.467 667.619C938.104 666.056 939.087 663.931 939.217 661.672L943.248 591.808C943.318 590.594 943.139 589.378 942.723 588.235C942.306 587.092 941.661 586.046 940.826 585.162C939.991 584.277 938.984 583.572 937.867 583.091C936.75 582.609 935.546 582.361 934.33 582.361H796.163C794.976 582.361 793.801 582.597 792.706 583.057C791.611 583.516 790.619 584.189 789.787 585.037C788.956 585.884 788.302 586.889 787.863 587.992C787.424 589.095 787.21 590.275 787.232 591.462V591.462Z" fill="#CCCCCC"/>
<path d="M858.228 371.88C858.228 371.88 860.388 379.079 848.149 385.559C835.91 392.038 832.311 416.516 846.709 423.715C861.108 430.914 865.428 440.274 858.228 446.753C851.029 453.232 838.07 470.511 855.349 474.83C872.627 479.15 874.787 487.789 869.747 491.389C864.708 494.988 881.266 484.909 881.266 484.909C881.266 484.909 884.146 502.188 899.265 497.868C914.383 493.549 929.468 415.028 912.615 394.805C896.945 376 858.228 371.88 858.228 371.88Z" fill="#2F2E41"/>
<path d="M853.63 364.469C853.633 353.922 885.188 361.501 898.718 376.227C908.086 386.425 922.316 401.768 910.392 412.583C898.468 423.397 930.831 437.575 939.511 441.873C948.191 446.171 965.328 459.316 949.854 468.134C934.38 476.952 934.63 485.854 940.453 487.962C946.277 490.069 927.614 484.828 927.614 484.828C927.614 484.828 929.499 502.243 913.776 502.159C898.053 502.076 852.944 415.665 863.72 391.646C873.74 369.314 853.63 364.469 853.63 364.469Z" fill="#2F2E41"/>
<path d="M860.465 362.158C818.267 359.617 814.032 391.381 814.032 391.381C814.323 409.763 843.514 400.806 851.622 403.546C861.403 396.51 880.258 383.196 893.742 373.695C883.952 366.802 872.42 362.804 860.465 362.158Z" fill="#2F2E41"/>
<path d="M848.442 564.849C848.442 564.849 810.59 387.449 573.669 258.76" stroke="#3F3D56" stroke-width="2" stroke-miterlimit="10"/>
<path d="M583.431 254.891L583.905 256.836L574.322 259.16L577.341 268.549L575.435 269.16L571.76 257.724L583.431 254.891Z" fill="#3F3D56"/>
<path d="M210.773 740.29L217.155 735.549C217.155 735.549 221.379 759.146 216.666 762.681C211.952 766.217 194.275 772.109 194.275 779.18C194.275 786.25 154.207 795.678 153.029 785.072C151.85 774.466 156.564 768.574 156.564 768.574C156.564 768.574 175.419 749.718 177.776 746.183C180.133 742.647 186.026 735.577 186.026 735.577L210.773 740.29Z" fill="white"/>
<path d="M116.496 446.854C116.496 446.854 116.673 447.891 116.979 449.788C117.262 451.473 117.651 453.854 118.123 456.788C123.072 486.992 137.508 575.907 136.53 578.841C135.352 582.377 127.103 595.34 136.53 598.875C137.438 599.217 138.416 600.325 139.465 602.069C141.489 605.825 143.158 609.763 144.449 613.83C150.071 630.14 156.081 656.243 159.557 674.32C161.078 682.263 162.115 688.65 162.421 691.997C162.527 692.771 162.539 693.554 162.456 694.331C161.278 699.044 169.527 715.543 173.062 720.257C176.598 724.97 182.49 729.684 181.312 734.398C180.133 739.112 210.773 752.075 214.309 743.826C217.844 735.577 217.844 730.863 219.022 728.506C220.201 726.149 221.379 709.651 215.487 707.294C209.595 704.937 213.13 663.691 207.238 655.441C205.27 652.695 202.265 643.397 199.118 632.214C197.881 627.83 196.632 623.163 195.406 618.485C190.433 599.311 186.026 580.02 186.026 580.02L187.204 442.14L122.389 433.891L120.727 437.556L117.416 444.827L116.496 446.854Z" fill="black"/>
<path d="M112.961 673.118C112.961 673.118 103.533 663.69 98.8195 673.118C94.1056 682.546 89.3918 719.078 81.1425 727.327C72.8933 735.577 62.2872 776.823 74.0718 779.18C85.8564 781.537 98.8194 775.644 99.9979 768.574C101.176 761.503 125.924 724.97 125.924 721.435C125.924 717.9 109.426 704.937 109.426 704.937L112.961 673.118Z" fill="white"/>
<path d="M257.912 382.038C257.912 382.038 242.592 519.918 239.056 532.881C235.521 545.844 216.666 595.34 210.773 603.589C204.881 611.838 167.17 679.011 162.456 682.546C157.743 686.081 148.315 695.509 148.315 695.509C148.315 695.509 130.638 713.186 128.281 716.721C125.924 720.257 105.89 709.651 104.712 702.58C103.533 695.509 105.89 683.724 107.069 679.011C108.247 674.297 104.712 667.226 108.247 663.691C111.783 660.155 129.459 642.478 129.459 634.229C129.459 625.98 160.099 577.663 171.884 567.057C183.669 556.451 181.312 538.774 181.312 538.774V466.888L116.496 446.854C116.496 446.854 120.032 390.288 128.281 390.288C136.53 390.288 244.949 371.432 257.912 382.038Z" fill="black"/>
<path d="M162.456 185.235C183.934 185.235 201.346 167.824 201.346 146.346C201.346 124.868 183.934 107.457 162.456 107.457C140.978 107.457 123.567 124.868 123.567 146.346C123.567 167.824 140.978 185.235 162.456 185.235Z" fill="#9F616A"/>
<path d="M175.419 176.986C175.419 176.986 180.133 194.663 186.026 199.377C191.918 204.091 170.706 224.125 170.706 224.125L130.638 226.481L123.567 204.091C123.567 204.091 136.53 178.165 132.995 161.666C129.459 145.168 175.419 176.986 175.419 176.986Z" fill="#9F616A"/>
<path d="M191.918 197.02C191.918 197.02 181.312 198.198 178.955 201.734C176.598 205.269 160.099 215.875 147.136 213.518C134.173 211.161 125.924 207.626 123.567 208.804C121.21 209.983 116.496 234.731 116.496 234.731L129.459 272.441L127.102 376.146L123.567 404.429C123.567 404.429 116.496 395.001 144.779 400.894C173.062 406.786 209.595 396.18 221.379 395.001C233.164 393.823 253.198 390.288 254.376 383.217C255.555 376.146 250.841 350.22 250.841 350.22L231.986 271.263L220.201 228.838L191.918 197.02Z" fill="black"/>
<path d="M180.771 191.701C180.771 191.701 190.739 186.414 194.275 191.128C197.81 195.841 242.592 202.912 242.592 206.448C242.592 209.983 252.019 305.438 249.662 313.688C247.305 321.937 254.376 331.365 254.376 331.365L262.625 366.718C262.625 366.718 285.016 433.891 275.589 436.248C266.161 438.604 257.912 436.248 254.376 436.248C250.841 436.248 252.019 391.466 242.592 379.681C233.164 367.897 220.201 338.435 217.844 332.543C215.487 326.651 186.026 245.337 187.204 235.909C188.382 226.482 180.771 191.701 180.771 191.701Z" fill="#4D3215"/>
<path d="M131.816 197.02C131.816 197.02 122.389 197.02 121.21 199.377C120.032 201.734 108.247 217.054 103.533 220.589C98.8195 224.125 82.321 239.444 82.321 242.98C82.321 246.515 116.496 272.441 116.496 272.441C116.496 272.441 130.638 341.971 123.567 365.54C116.496 389.109 105.89 445.675 110.604 449.211C115.318 452.746 125.924 453.924 125.924 449.211C125.924 444.497 132.995 393.823 138.887 383.217C144.78 372.611 162.456 305.438 155.386 286.583C148.315 267.728 131.816 197.02 131.816 197.02Z" fill="#4D3215"/>
<path d="M287.373 313.688C287.373 313.688 288.552 350.22 275.589 369.075C262.626 387.931 254.376 409.143 254.376 409.143C254.376 409.143 233.164 403.251 229.629 396.18C226.093 389.109 203.703 395.001 203.703 392.645C203.703 390.288 230.807 378.503 233.164 376.146C235.521 373.789 243.77 373.789 248.484 369.075C253.198 364.361 254.376 353.755 254.376 353.755L259.09 323.115L287.373 313.688Z" fill="#9F616A"/>
<path d="M189.241 122.368C192.233 122.096 195.319 121.797 197.963 120.371C203.887 117.176 205.458 108.077 200.948 103.08C199.705 101.809 198.314 100.691 196.805 99.749L187.847 93.6518C183.885 90.9552 179.83 88.2143 175.209 86.9431C171.03 85.7933 166.615 85.9115 162.289 86.1804C153.89 86.7024 145.44 87.7807 137.54 90.6804C129.641 93.5801 122.272 98.4313 117.488 105.354C109.903 116.328 109.799 131.129 113.976 143.798C118.154 156.467 126.089 167.499 133.908 178.308L137.965 158.513C138.326 156.75 138.793 154.817 140.26 153.774C143.904 151.181 148.362 156.505 152.835 156.471C155.709 156.449 158.122 154.085 159.211 151.425C160.301 148.765 160.372 145.82 160.624 142.957C161.158 136.892 163.278 128.455 169.021 125.11C174.372 121.994 183.226 122.914 189.241 122.368Z" fill="#2F2E41"/>
<path opacity="0.1" d="M187.06 447.805C187.06 447.805 183.079 562.932 180.722 566.467C178.366 570.003 180.722 447.443 180.722 447.443L187.06 447.805Z" fill="black"/>
<path d="M233.164 206.448H242.592C242.592 206.448 282.659 260.657 277.946 264.192C273.232 267.728 277.946 277.155 277.946 277.155L287.373 294.832C287.373 294.832 299.158 305.438 295.622 307.795C292.087 310.152 287.373 319.58 287.373 319.58C287.373 319.58 263.804 316.045 256.733 330.186L241.449 310.89L233.164 206.448Z" fill="#4D3215"/>
<path d="M236.496 223.884L204.146 237.243L229.04 297.529L261.391 284.17L236.496 223.884Z" fill="#2F2E41"/>
<path d="M232.705 259.242C236.278 257.766 238.076 253.909 236.72 250.626C235.365 247.344 231.369 245.879 227.796 247.355C224.222 248.83 222.425 252.687 223.78 255.97C225.136 259.253 229.131 260.717 232.705 259.242Z" fill="#6C63FF"/>
<path d="M209.595 300.724C209.595 300.724 124.746 371.432 110.604 349.041C96.4625 326.651 125.924 307.795 125.924 307.795C125.924 307.795 151.85 308.974 181.312 290.118L210.773 277.155C210.773 277.155 237.669 238.756 246.835 253.378C256 268 231.19 293.449 209.595 300.724Z" fill="#9F616A"/>
<path d="M95.2841 238.266L82.321 242.98V278.334L77.6072 285.404C77.6072 285.404 78.7856 299.546 82.321 303.081C85.8564 306.617 92.9272 305.438 90.5703 313.688C89.1537 319.066 88.7541 324.661 89.3918 330.186C89.3918 330.186 110.604 357.291 111.783 353.755C112.961 350.22 129.459 306.617 131.816 306.617C134.173 306.617 108.247 238.266 108.247 238.266H95.2841Z" fill="#4D3215"/>
<path d="M250.252 416.803C250.252 416.803 262.437 405.018 256.344 404.429C250.252 403.84 229.039 392.055 225.504 397.948C221.969 403.84 250.252 416.803 250.252 416.803Z" fill="#2F2E41"/>
<path d="M482 192C491.389 192 499 187.971 499 183C499 178.03 491.389 174 482 174C472.611 174 465 178.03 465 183C465 187.971 472.611 192 482 192Z" fill="#57B894"/>
<path d="M547 213C508.667 198.523 470.333 198.523 432 213V166C469.498 154.685 509.502 154.685 547 166V213Z" stroke="#3F3D56" stroke-width="2" stroke-miterlimit="10"/>
<path d="M531 203.28C503.333 192.831 475.667 192.831 448 203.28V169.359C475.064 161.192 503.936 161.192 531 169.359V203.28Z" stroke="#3F3D56" stroke-width="2" stroke-miterlimit="10"/>
<path d="M488 188C497.389 188 505 183.971 505 179C505 174.03 497.389 170 488 170C478.611 170 471 174.03 471 179C471 183.971 478.611 188 488 188Z" stroke="#3F3D56" stroke-width="2" stroke-miterlimit="10"/>
<path d="M494.5 248.364C503.699 246.486 510.351 241.016 509.357 236.146C508.363 231.276 500.1 228.85 490.9 230.728C481.701 232.605 475.05 238.075 476.044 242.945C477.038 247.815 485.301 250.241 494.5 248.364Z" fill="#57B894"/>
<path d="M562.386 255.941C521.932 249.422 484.373 257.087 449.709 278.938L440.311 232.888C474.789 214.302 513.984 206.303 552.988 209.891L562.386 255.941Z" stroke="#3F3D56" stroke-width="2" stroke-miterlimit="10"/>
<path d="M544.766 249.617C515.569 244.912 488.461 250.445 463.443 266.215L456.659 232.979C481.543 219.565 509.832 213.791 537.982 216.381L544.766 249.617Z" stroke="#3F3D56" stroke-width="2" stroke-miterlimit="10"/>
<path d="M499.579 243.245C508.778 241.367 515.43 235.897 514.436 231.027C513.442 226.157 505.179 223.731 495.979 225.608C486.78 227.486 480.129 232.956 481.123 237.826C482.117 242.696 490.38 245.122 499.579 243.245Z" stroke="#3F3D56" stroke-width="2" stroke-miterlimit="10"/>
<path d="M506.134 296.665C506.479 291.707 499.166 287.159 489.799 286.507C480.433 285.855 472.561 289.346 472.216 294.305C471.871 299.264 479.184 303.812 488.55 304.463C497.916 305.115 505.789 301.624 506.134 296.665Z" fill="#57B894"/>
<path d="M551.935 329.925C514.7 312.821 476.459 310.16 437.213 321.942L440.475 275.055C478.669 266.37 518.576 269.147 555.198 283.038L551.935 329.925Z" stroke="#3F3D56" stroke-width="2" stroke-miterlimit="10"/>
<path d="M536.649 319.118C509.774 306.773 482.174 304.853 453.849 313.356L456.204 279.516C483.769 273.248 512.572 275.252 539.004 285.278L536.649 319.118Z" stroke="#3F3D56" stroke-width="2" stroke-miterlimit="10"/>
<path d="M512.397 293.091C512.742 288.133 505.429 283.585 496.063 282.933C486.696 282.281 478.824 285.773 478.479 290.731C478.134 295.69 485.447 300.238 494.813 300.89C504.179 301.541 512.052 298.05 512.397 293.091Z" stroke="#3F3D56" stroke-width="2" stroke-miterlimit="10"/>
<path d="M414.922 214.092C414.922 214.092 341.426 204.037 288.94 234.795" stroke="#3F3D56" stroke-width="2" stroke-miterlimit="10"/>
<path d="M290.708 224.459L292.617 225.063L289.633 234.462L299.227 236.751L298.76 238.698L287.077 235.907L290.708 224.459Z" fill="#3F3D56"/>
</svg>
