<svg width="658" height="777" viewBox="0 0 658 777" fill="none" xmlns="http://www.w3.org/2000/svg">
<g clip-path="url(#clip0_3_2)">
<path d="M308.748 263.269C308.748 301.909 295.248 334.899 269.558 359.449C251.328 376.879 223.248 401.309 223.248 427.139V448.509H137.748V427.139C137.748 401.039 109.558 376.559 91.438 359.449C66.328 335.759 52.248 300.529 52.248 263.269V262.479C52.3583 228.469 65.9732 195.895 90.0982 171.922C114.223 147.949 146.883 134.541 180.893 134.645C214.903 134.75 247.479 148.36 271.456 172.481C295.433 196.602 308.847 229.259 308.748 263.269Z" fill="#034A75"/>
<path d="M223.247 451.51C222.451 451.51 221.688 451.194 221.126 450.631C220.563 450.069 220.247 449.306 220.247 448.51V427.136C220.247 402.011 245.026 378.556 263.12 361.43C264.62 360.008 266.081 358.63 267.483 357.285C292.512 333.357 305.742 300.848 305.742 263.271C305.742 193.042 250.729 138.028 180.5 138.028H180.146C147.095 138.065 115.404 151.187 92.0009 174.524C68.5978 197.861 55.387 229.516 55.257 262.566V263.266C55.257 300.066 69.196 334.329 93.502 357.273C94.733 358.436 96.012 359.633 97.325 360.862C115.652 378.021 140.752 401.52 140.752 427.137V448.51C140.752 449.306 140.436 450.069 139.873 450.631C139.311 451.194 138.548 451.51 137.752 451.51C136.956 451.51 136.193 451.194 135.631 450.631C135.068 450.069 134.752 449.306 134.752 448.51V427.136C134.752 404.121 110.752 381.65 93.224 365.236C91.905 364.002 90.6246 362.8 89.383 361.631C63.883 337.559 49.257 301.707 49.257 263.267V262.547C49.457 190.502 108.142 132.024 180.137 132.024H180.508C215.133 131.844 248.412 145.426 273.023 169.783C297.634 194.139 311.562 227.275 311.742 261.9C311.744 262.357 311.744 262.814 311.742 263.271C311.742 302.526 297.871 336.535 271.63 361.622C270.221 362.969 268.754 364.358 267.244 365.787C249.944 382.164 226.244 404.593 226.244 427.136V448.51C226.244 449.306 225.928 450.069 225.365 450.631C224.803 451.194 224.04 451.51 223.244 451.51H223.247Z" fill="#3F3D56"/>
<path d="M208.999 490.005H151.999C150.673 490.005 149.401 489.478 148.463 488.541C147.526 487.603 146.999 486.331 146.999 485.005C146.999 483.679 147.526 482.407 148.463 481.469C149.401 480.532 150.673 480.005 151.999 480.005H208.999C210.325 480.005 211.597 480.532 212.535 481.469C213.472 482.407 213.999 483.679 213.999 485.005C213.999 486.331 213.472 487.603 212.535 488.541C211.597 489.478 210.325 490.005 208.999 490.005V490.005Z" fill="white"/>
<path d="M186.628 523.505H174.361C170.1 523.508 165.919 522.349 162.267 520.154C161.725 519.838 161.306 519.35 161.076 518.767C160.846 518.184 160.819 517.54 160.998 516.94C161.163 516.323 161.527 515.779 162.034 515.391C162.541 515.004 163.162 514.795 163.8 514.798H197.189C197.827 514.795 198.448 515.004 198.955 515.391C199.462 515.779 199.826 516.323 199.991 516.94C200.17 517.54 200.143 518.184 199.913 518.767C199.683 519.35 199.264 519.838 198.722 520.154C195.07 522.349 190.889 523.508 186.628 523.505V523.505Z" fill="white"/>
<path d="M209.009 505.799L151.671 505.792L151.493 505.412C151.324 504.711 151.317 503.982 151.473 503.278C151.629 502.575 151.943 501.917 152.393 501.354C152.848 500.776 153.429 500.309 154.091 499.989C154.754 499.669 155.48 499.503 156.216 499.505H204.773C205.509 499.503 206.236 499.669 206.898 499.989C207.56 500.31 208.141 500.776 208.597 501.354C209.042 501.909 209.356 502.559 209.513 503.253C209.671 503.947 209.669 504.668 209.508 505.361L209.417 505.748L209.009 505.799Z" fill="white"/>
<path d="M47.899 145.411C46.6903 145.412 45.5224 144.974 44.613 144.178L1.67399 106.697C0.69034 105.821 0.0922456 104.592 0.00971205 103.277C-0.0728215 101.962 0.366881 100.668 1.23322 99.6754C2.09956 98.683 3.32254 98.0726 4.63642 97.9768C5.9503 97.8811 7.24889 98.3077 8.24998 99.164L51.189 136.645C51.9559 137.314 52.5003 138.202 52.7493 139.189C52.9983 140.176 52.9401 141.216 52.5824 142.169C52.2247 143.122 51.5847 143.943 50.7477 144.523C49.9108 145.102 48.917 145.412 47.899 145.412V145.411Z" fill="#CD8B46"/>
<path d="M305.977 145.411C304.959 145.411 303.965 145.101 303.128 144.522C302.291 143.942 301.651 143.121 301.294 142.168C300.936 141.215 300.878 140.175 301.127 139.188C301.376 138.201 301.92 137.313 302.687 136.644L345.625 99.16C346.626 98.3037 347.925 97.877 349.238 97.9728C350.552 98.0686 351.775 98.679 352.642 99.6714C353.508 100.664 353.948 101.958 353.865 103.273C353.783 104.588 353.185 105.817 352.201 106.693L309.262 144.174C308.353 144.971 307.186 145.411 305.977 145.411Z" fill="#CD8B46"/>
<path d="M223.247 472.26H137.747C136.421 472.26 135.149 471.733 134.211 470.796C133.274 469.858 132.747 468.586 132.747 467.26C132.747 465.934 133.274 464.662 134.211 463.724C135.149 462.787 136.421 462.26 137.747 462.26H223.247C224.573 462.26 225.845 462.787 226.783 463.724C227.72 464.662 228.247 465.934 228.247 467.26C228.247 468.586 227.72 469.858 226.783 470.796C225.845 471.733 224.573 472.26 223.247 472.26V472.26Z" fill="white"/>
<path d="M178.398 341.639L160.618 448.509H150.468L168.528 339.999C168.745 338.691 169.474 337.522 170.553 336.75C171.632 335.978 172.974 335.667 174.283 335.884C175.592 336.102 176.761 336.83 177.532 337.91C178.304 338.989 178.615 340.331 178.398 341.639V341.639Z" fill="#E6E6E6"/>
<path d="M212.568 448.509H202.418L184.638 341.639C184.42 340.331 184.732 338.989 185.504 337.91C186.275 336.83 187.444 336.102 188.753 335.884C190.062 335.667 191.403 335.978 192.483 336.75C193.562 337.522 194.29 338.691 194.508 339.999L212.568 448.509Z" fill="#E6E6E6"/>
<path d="M148.003 338.069C148.003 336.743 148.529 335.472 149.467 334.534C150.405 333.596 151.676 333.069 153.003 333.069H207.995C209.322 333.069 210.593 333.596 211.531 334.534C212.469 335.472 212.995 336.743 212.995 338.069C212.995 339.396 212.469 340.667 211.531 341.605C210.593 342.543 209.322 343.069 207.995 343.069H153.003C151.676 343.069 150.405 342.543 149.467 341.605C148.529 340.667 148.003 339.396 148.003 338.069V338.069Z" fill="#E6E6E6"/>
<path d="M180.499 95.5C179.173 95.5 177.901 94.9732 176.963 94.0355C176.026 93.0978 175.499 91.8261 175.499 90.5V5C175.499 3.67392 176.026 2.40215 176.963 1.46447C177.901 0.526784 179.173 0 180.499 0C181.825 0 183.097 0.526784 184.035 1.46447C184.972 2.40215 185.499 3.67392 185.499 5V90.5C185.499 91.8261 184.972 93.0978 184.035 94.0355C183.097 94.9732 181.825 95.5 180.499 95.5V95.5Z" fill="#CD8B46"/>
<path d="M589.219 762.149H576.961L571.129 714.861H589.221L589.219 762.149Z" fill="#FEB8B8"/>
<path d="M592.346 774.033H552.815V773.533C552.815 769.453 554.436 765.539 557.321 762.654C560.207 759.769 564.12 758.148 568.2 758.147H592.346L592.346 774.033Z" fill="#2F2E41"/>
<path d="M496.082 761.745L484.238 758.578L490.818 711.388L508.298 716.062L496.082 761.745Z" fill="#FEB8B8"/>
<path d="M496.033 774.033L457.844 763.821L457.973 763.338C459.027 759.396 461.604 756.034 465.137 753.991C468.67 751.949 472.87 751.394 476.812 752.448V752.448L500.137 758.685L496.033 774.033Z" fill="#2F2E41"/>
<path d="M596.272 497.137L606.541 509.068L593.261 751.51H564.892L550.592 564.959L506.243 756.513L476.751 749.28L503.567 505.98L596.272 497.137Z" fill="#2F2E41"/>
<path d="M510.423 340.612L538.669 326.44L582.106 327.204L619.486 346.331L598.218 452.549L607.405 507.929C571.897 516.984 534.722 517.29 499.07 508.821L498.786 508.753C498.786 508.753 519.9 433.837 510.912 410.974L510.423 340.612Z" fill="#E6E6E6"/>
<path d="M592.139 284.004C592.108 275.529 588.715 267.413 582.705 261.437C576.696 255.46 568.561 252.113 560.086 252.129C551.611 252.144 543.488 255.522 537.501 261.52C531.514 267.519 528.151 275.647 528.151 284.122C528.151 292.598 531.514 300.726 537.501 306.725C543.488 312.723 551.611 316.101 560.086 316.116C568.561 316.132 576.696 312.785 582.705 306.808C588.715 300.832 592.108 292.716 592.139 284.241V284.004Z" fill="#FEB8B8"/>
<path d="M506.525 418.053C507.133 419.614 508.076 421.024 509.287 422.181C510.498 423.339 511.949 424.217 513.536 424.753C515.124 425.29 516.809 425.472 518.475 425.286C520.14 425.101 521.744 424.553 523.175 423.68L580.528 453.998L582.385 440.027L526.655 407.164C525.03 404.858 522.615 403.229 519.868 402.584C517.122 401.94 514.234 402.325 511.753 403.667C509.272 405.009 507.369 407.215 506.405 409.867C505.441 412.518 505.484 415.431 506.524 418.053H506.525Z" fill="#FEB8B8"/>
<path d="M582.954 420.468C582.019 421.859 580.791 423.027 579.356 423.892C577.92 424.757 576.313 425.296 574.646 425.472C572.98 425.649 571.295 425.457 569.711 424.912C568.126 424.367 566.681 423.48 565.476 422.316L502.876 439.351L503.421 421.613L565.692 405.44C567.782 403.545 570.495 402.483 573.317 402.455C576.138 402.427 578.871 403.435 580.999 405.287C583.127 407.14 584.501 409.709 584.861 412.507C585.221 415.306 584.542 418.139 582.953 420.47L582.954 420.468Z" fill="#FEB8B8"/>
<path d="M607.28 347.1L619.485 346.335C619.485 346.335 633.775 365.19 625.849 385.651C625.849 385.651 627.222 459.151 595.573 456.131C563.924 453.111 553.923 453.112 553.923 453.112L563.423 426.612L584.676 420.05C584.676 420.05 578.126 391.156 590.525 379.134L607.28 347.1Z" fill="#E6E6E6"/>
<path d="M519.148 346.455L517.423 337.612C517.423 337.612 491.983 337.012 486.953 375.563C486.953 375.563 464.076 433.255 486.499 440.684C508.922 448.113 533.588 440.684 533.588 440.684L531.731 415.24L507.061 410.207C507.061 410.207 519.806 393.718 512.866 379.415L519.148 346.455Z" fill="#E6E6E6"/>
<path d="M571.222 299.715C568.87 298.791 566.264 298.839 563.777 298.384C554.883 296.745 548.024 287.677 548.869 278.674C549.081 277.507 549.101 276.314 548.927 275.141C548.31 272.572 545.455 271.193 542.832 270.885C540.209 270.578 537.498 270.971 534.947 270.288C531.007 269.233 528.064 265.64 527.066 261.685C526.216 257.664 526.66 253.477 528.333 249.722L529.557 252.274C530.83 250.923 531.699 249.242 532.063 247.422C533.133 247.479 534.169 247.81 535.074 248.383C535.978 248.956 536.721 249.752 537.23 250.694C538.811 251.4 538.618 247.788 540.194 247.073C540.903 246.902 541.652 246.999 542.294 247.346C545.767 248.512 549.45 246.763 552.891 245.511C558.852 243.348 565.238 242.618 571.533 243.38C575.716 243.891 579.938 245.127 583.193 247.8C585.765 250.13 587.856 252.941 589.349 256.074C593.366 263.582 596.392 271.866 596.31 280.383C596.228 287.356 594.083 294.148 590.145 299.903C588.093 302.889 581.466 313.246 577.061 312.106C571.527 310.676 577.847 302.313 571.222 299.715Z" fill="#2F2E41"/>
</g>
<defs>
<clipPath id="clip0_3_2">
<rect width="657.036" height="776.139" fill="white"/>
</clipPath>
</defs>
</svg>
