<svg width="761" height="494" viewBox="0 0 761 494" fill="none" xmlns="http://www.w3.org/2000/svg">
<g clip-path="url(#clip0_4_99)">
<path d="M760.553 231.87C760.555 251.519 753.14 270.444 739.791 284.862C726.443 299.281 708.144 308.13 688.553 309.64C687.893 309.69 687.223 309.74 686.553 309.77V235.74C686.554 235 686.389 234.27 686.071 233.602C685.753 232.934 685.289 232.346 684.714 231.88C684.647 231.812 684.573 231.752 684.493 231.7C684.421 231.641 684.344 231.588 684.263 231.54C683.561 231.088 682.756 230.819 681.923 230.758C681.09 230.697 680.254 230.845 679.493 231.19L678.663 229.37C679.571 228.957 680.556 228.742 681.553 228.74L624.594 179.67C625.033 179.17 625.493 178.68 625.953 178.19C636.692 166.871 650.578 159.031 665.818 155.685C681.057 152.339 696.951 153.64 711.443 159.42C725.936 165.2 738.363 175.193 747.117 188.108C755.872 201.024 760.552 216.267 760.553 231.87V231.87Z" fill="#F2F2F2"/>
<path d="M19.7777 285.056C19.4944 283.609 19.5319 282.117 19.8875 280.686C20.2431 279.255 20.9082 277.919 21.8359 276.773C22.7637 275.626 23.9314 274.697 25.257 274.051C26.5825 273.405 28.0337 273.057 29.5082 273.033L74.4703 219.509L85.6953 233.861L39.8726 283.674C39.7498 286.154 38.7218 288.502 36.9831 290.275C35.2445 292.047 32.9161 293.12 30.4392 293.29C27.9622 293.461 25.5088 292.717 23.5438 291.199C21.5789 289.681 20.2389 287.496 19.7777 285.056H19.7777Z" fill="#FFB8B8"/>
<path d="M233.287 219.178C232.972 219.634 232.694 220.113 232.454 220.612L183.36 227.629L175.905 218.165L160.151 227.549L174.96 250.638L234.835 232.988C236.415 234.418 238.393 235.333 240.506 235.612C242.619 235.891 244.767 235.52 246.664 234.548C248.561 233.576 250.117 232.05 251.126 230.173C252.134 228.295 252.547 226.155 252.309 224.037C252.072 221.919 251.195 219.923 249.796 218.316C248.397 216.708 246.541 215.564 244.476 215.037C242.411 214.51 240.235 214.623 238.236 215.363C236.237 216.103 234.511 217.434 233.287 219.178Z" fill="#FFB8B8"/>
<path d="M149.426 398.009L158.114 406.659L195.614 377.267L182.792 364.5L149.426 398.009Z" fill="#FFB8B8"/>
<path d="M166.836 431.409L139.532 404.222L150.036 393.673L166.791 410.356C168.176 411.735 169.276 413.374 170.028 415.179C170.78 416.983 171.17 418.918 171.174 420.873C171.178 422.828 170.797 424.765 170.053 426.573C169.309 428.38 168.216 430.024 166.836 431.409L166.836 431.409Z" fill="#2F2E41"/>
<path d="M103.246 480.98H115.506L121.338 433.692H103.244L103.246 480.98Z" fill="#FFB8B8"/>
<path d="M139.15 492.363L100.619 492.364L100.618 477.478L124.262 477.476C126.217 477.476 128.153 477.861 129.959 478.609C131.765 479.357 133.407 480.454 134.789 481.836C136.171 483.219 137.268 484.86 138.016 486.666C138.765 488.472 139.15 490.408 139.15 492.363V492.363Z" fill="#2F2E41"/>
<path d="M100.581 444.457L86.6163 341.47C84.4309 325.906 85.1091 310.074 88.6176 294.754C91.4832 282.442 95.3545 273.914 100.124 269.407C100.877 268.701 101.841 268.261 102.867 268.154L148.974 263.352C149.862 263.261 150.758 263.424 151.556 263.823C152.355 264.223 153.023 264.841 153.484 265.605L155 268.131C155.184 268.438 155.332 268.764 155.442 269.105L165.19 299.325C165.336 299.781 165.57 300.204 165.881 300.569C166.191 300.934 166.571 301.234 166.999 301.451C182.347 309.287 232.202 335.739 229.349 347.151C226.668 357.874 201.569 375.261 193.941 380.334C193.164 380.853 192.249 381.127 191.315 381.12C190.38 381.113 189.47 380.825 188.701 380.294L176.038 371.63C175.419 371.207 174.911 370.642 174.556 369.982C174.201 369.323 174.009 368.588 173.996 367.839C173.983 367.09 174.149 366.349 174.481 365.677C174.813 365.005 175.301 364.423 175.904 363.979L184.637 357.544C185.171 357.15 185.588 356.618 185.842 356.005C186.097 355.392 186.179 354.721 186.081 354.064C185.982 353.408 185.707 352.79 185.284 352.279C184.861 351.767 184.306 351.381 183.68 351.161L136.781 334.705C136.255 334.52 135.693 334.458 135.139 334.525C134.584 334.591 134.053 334.784 133.585 335.088C133.117 335.392 132.725 335.799 132.439 336.278C132.153 336.757 131.98 337.296 131.935 337.852L123.288 443.539C123.192 444.673 122.69 445.733 121.873 446.524C121.056 447.315 119.98 447.784 118.845 447.843L105.465 448.513C105.384 448.517 105.303 448.519 105.222 448.519C104.087 448.523 102.989 448.113 102.134 447.365C101.28 446.617 100.727 445.583 100.581 444.457V444.457Z" fill="#2F2E41"/>
<path d="M121.726 178.085C135.291 178.085 146.287 167.088 146.287 153.524C146.287 139.959 135.291 128.963 121.726 128.963C108.162 128.963 97.1653 139.959 97.1653 153.524C97.1653 167.088 108.162 178.085 121.726 178.085Z" fill="#FFB8B8"/>
<path d="M98.7537 265.2L80.6746 199.235L80.9842 199.026C81.3724 198.765 120.341 173.033 165.965 193.769L166.792 194.244L156.079 262.711C155.845 264.273 155.074 265.705 153.897 266.76C152.721 267.814 151.213 268.425 149.635 268.487L105.552 270.183C105.463 270.186 105.374 270.188 105.286 270.188C103.8 270.192 102.354 269.705 101.173 268.803C99.9923 267.901 99.1418 266.634 98.7537 265.2V265.2Z" fill="#CD8B46"/>
<path d="M79.9866 242.179L64.9294 224.864C64.2042 224.032 63.7958 222.971 63.7764 221.867C63.7569 220.764 64.1275 219.689 64.823 218.832L80.5636 199.387L92.647 202.683L99.0532 225.104L87.3726 241.791C86.9651 242.377 86.4289 242.861 85.805 243.207C85.1811 243.553 84.4862 243.751 83.7737 243.786C83.6894 243.791 83.6057 243.793 83.5219 243.793C82.8512 243.794 82.1882 243.65 81.5781 243.372C80.968 243.094 80.4251 242.687 79.9866 242.179V242.179Z" fill="#CD8B46"/>
<path d="M163.252 238.572C162.539 238.537 161.844 238.339 161.22 237.993C160.596 237.647 160.06 237.163 159.653 236.577L147.972 219.89L153.59 196.288L164.716 193.253L166.792 194.244L182.202 213.618C182.898 214.475 183.268 215.549 183.249 216.653C183.229 217.757 182.821 218.818 182.096 219.65L167.039 236.965C166.6 237.472 166.057 237.879 165.447 238.158C164.837 238.436 164.174 238.58 163.503 238.578C163.42 238.578 163.336 238.576 163.252 238.572Z" fill="#CD8B46"/>
<path d="M686.553 230.84C686.563 231.089 686.477 231.332 686.313 231.52C686.141 231.722 685.896 231.847 685.631 231.867C685.367 231.888 685.105 231.803 684.904 231.63L681.553 228.74L624.594 179.67L464.834 42.0203C463.922 41.2401 462.762 40.8122 461.562 40.814C460.362 40.8159 459.203 41.2473 458.294 42.0303L243.154 228.94L241.214 230.62C241.139 230.686 241.055 230.74 240.964 230.78C240.804 230.851 240.628 230.879 240.453 230.86C240.204 230.834 239.972 230.716 239.803 230.53C239.717 230.432 239.65 230.317 239.608 230.193C239.565 230.069 239.547 229.938 239.556 229.807C239.564 229.676 239.598 229.548 239.656 229.43C239.714 229.312 239.795 229.207 239.893 229.12L240.163 228.88L456.984 40.5203C458.258 39.426 459.88 38.8227 461.56 38.819C463.239 38.8154 464.865 39.4116 466.143 40.5003L625.953 178.19L686.203 230.11C686.309 230.201 686.394 230.313 686.454 230.439C686.515 230.564 686.548 230.701 686.553 230.84V230.84Z" fill="#3F3D56"/>
<path d="M565.084 260.37L562.453 253.13L553.393 228.13L533.873 174.3L512.053 114.13L472.703 5.60026C471.931 3.48383 470.351 1.75985 468.31 0.805838C466.269 -0.148172 463.933 -0.254456 461.813 0.51026L234.304 83.0003C232.186 83.7721 230.462 85.3519 229.508 87.3933C228.554 89.4346 228.448 91.771 229.214 93.8903L285.004 247.75L285.953 250.38L344.513 276.92L360.973 284.38L363.643 285.59L433.334 317.18L436.033 316.2L481.743 299.63L550.694 274.63L559.984 271.26C562.102 270.489 563.828 268.91 564.784 266.869C565.739 264.828 565.847 262.491 565.084 260.37V260.37Z" fill="#E6E6E6"/>
<path d="M469.683 132.21C468.548 129.095 466.225 126.558 463.222 125.154C460.219 123.75 456.781 123.594 453.663 124.72L363.643 157.37L320.174 173.13C318.629 173.688 317.21 174.546 315.997 175.653C314.783 176.76 313.801 178.095 313.104 179.583C312.407 181.07 312.01 182.68 311.936 184.321C311.862 185.961 312.112 187.6 312.672 189.144C313.232 190.688 314.09 192.107 315.199 193.319C316.307 194.531 317.643 195.513 319.131 196.208C320.619 196.903 322.23 197.298 323.87 197.371C325.511 197.443 327.15 197.192 328.694 196.63L363.643 183.96L462.194 148.23C465.308 147.095 467.846 144.772 469.25 141.768C470.654 138.765 470.81 135.328 469.683 132.21V132.21Z" fill="white"/>
<path d="M485.533 175.93C484.399 172.815 482.075 170.278 479.072 168.874C476.069 167.47 472.631 167.314 469.513 168.44L454.263 173.97L363.643 206.83L336.024 216.84C332.909 217.972 330.371 220.295 328.968 223.297C327.564 226.299 327.41 229.736 328.54 232.851C329.669 235.967 331.989 238.507 334.99 239.913C337.991 241.319 341.427 241.477 344.544 240.35L363.643 233.42L478.044 191.94C478.303 191.85 478.553 191.74 478.803 191.63C481.708 190.356 484.019 188.025 485.269 185.109C486.519 182.194 486.613 178.913 485.533 175.93V175.93Z" fill="white"/>
<path d="M501.554 220.11C500.421 216.996 498.099 214.458 495.098 213.054C492.096 211.65 488.66 211.494 485.544 212.62L442.774 228.13L409.663 240.14L363.643 256.82L352.044 261.03C349.363 262.007 347.096 263.869 345.617 266.31C344.139 268.75 343.538 271.622 343.913 274.45C344.028 275.292 344.229 276.12 344.514 276.92L360.974 284.38L363.643 283.41H363.663L447.174 253.13L494.063 236.13C497.18 234.998 499.719 232.674 501.124 229.67C502.528 226.667 502.683 223.228 501.554 220.11H501.554Z" fill="white"/>
<path d="M407.824 89.2302C406.689 86.1155 404.365 83.5779 401.362 82.1738C398.359 80.7697 394.921 80.6138 391.804 81.7402L340.103 100.48C336.989 101.612 334.451 103.935 333.047 106.937C331.644 109.939 331.49 113.376 332.619 116.491C333.748 119.607 336.068 122.147 339.069 123.553C342.07 124.959 345.507 125.116 348.623 123.99L364.984 118.06L375.813 114.13L400.334 105.24C403.448 104.108 405.986 101.786 407.39 98.7842C408.794 95.7827 408.95 92.3467 407.824 89.2302Z" fill="white"/>
<path d="M614.143 114.13H372.143C370.716 114.132 369.312 114.492 368.061 115.179C366.809 115.866 365.751 116.857 364.984 118.06C364.106 119.423 363.641 121.01 363.643 122.63V285.59L433.334 317.18L443.154 321.63L458.663 328.66C459.572 329.071 460.557 329.283 461.554 329.283C462.55 329.283 463.535 329.071 464.444 328.66L479.953 321.63L528.493 299.63L573.734 279.12L622.643 256.96V122.63C622.642 120.376 621.746 118.215 620.152 116.621C618.558 115.028 616.397 114.132 614.143 114.13Z" fill="#034A75"/>
<path d="M564.143 228.13H422.143C418.915 228.132 415.812 229.384 413.485 231.623C411.159 233.861 409.789 236.914 409.663 240.14C409.647 240.303 409.64 240.467 409.643 240.63C409.648 243.944 410.966 247.121 413.31 249.464C415.653 251.807 418.83 253.126 422.143 253.13H564.143C567.459 253.13 570.638 251.813 572.982 249.469C575.326 247.125 576.643 243.945 576.643 240.63C576.643 237.315 575.326 234.136 572.982 231.791C570.638 229.447 567.459 228.13 564.143 228.13Z" fill="white"/>
<path d="M572.234 277.61C569.98 275.682 567.11 274.625 564.143 274.63H422.143C418.828 274.63 415.649 275.947 413.305 278.291C410.96 280.636 409.643 283.815 409.643 287.13C409.643 290.445 410.96 293.625 413.305 295.969C415.649 298.313 418.828 299.63 422.143 299.63H528.493L573.734 279.12C573.277 278.575 572.775 278.07 572.234 277.61Z" fill="white"/>
<path d="M443.154 321.63L458.663 328.66C459.572 329.071 460.557 329.283 461.553 329.283C462.55 329.283 463.535 329.071 464.444 328.66L479.953 321.63H443.154Z" fill="white"/>
<path d="M532.384 174.84C531.503 172.434 529.905 170.356 527.806 168.888C525.706 167.419 523.206 166.631 520.643 166.63H465.643C463.242 166.632 460.892 167.326 458.874 168.627C456.856 169.929 455.256 171.784 454.263 173.97C453.523 175.589 453.141 177.35 453.143 179.13C453.148 182.444 454.466 185.621 456.81 187.964C459.153 190.307 462.33 191.626 465.643 191.63H520.643C522.654 191.63 524.636 191.145 526.419 190.216C528.202 189.287 529.735 187.942 530.888 186.294C532.04 184.646 532.778 182.744 533.038 180.75C533.299 178.756 533.074 176.729 532.384 174.84Z" fill="white"/>
<path d="M523.643 299.63L475.103 321.63L463.614 326.84C462.966 327.132 462.264 327.283 461.554 327.283C460.843 327.283 460.141 327.132 459.494 326.84L448.004 321.63H443.154L458.663 328.66C459.572 329.071 460.557 329.283 461.554 329.283C462.55 329.283 463.535 329.071 464.444 328.66L479.953 321.63L528.493 299.63H523.643ZM523.643 299.63L475.103 321.63L463.614 326.84C462.966 327.132 462.264 327.283 461.554 327.283C460.843 327.283 460.141 327.132 459.494 326.84L448.004 321.63H443.154L458.663 328.66C459.572 329.071 460.557 329.283 461.554 329.283C462.55 329.283 463.535 329.071 464.444 328.66L479.953 321.63L528.493 299.63H523.643ZM523.643 299.63L475.103 321.63L463.614 326.84C462.966 327.132 462.264 327.283 461.554 327.283C460.843 327.283 460.141 327.132 459.494 326.84L448.004 321.63H443.154L458.663 328.66C459.572 329.071 460.557 329.283 461.554 329.283C462.55 329.283 463.535 329.071 464.444 328.66L479.953 321.63L528.493 299.63H523.643ZM686.554 230.84C686.185 230.473 685.779 230.145 685.344 229.86C684.361 229.223 683.234 228.845 682.066 228.759C680.899 228.673 679.728 228.884 678.663 229.37L572.234 277.61L523.643 299.63L475.103 321.63L463.614 326.84C462.966 327.132 462.264 327.283 461.554 327.283C460.843 327.283 460.141 327.132 459.493 326.84L448.004 321.63L436.034 316.2L363.663 283.41L363.643 283.4L343.913 274.45L285.004 247.75L244.444 229.37C244.031 229.179 243.598 229.035 243.154 228.94C242.174 228.696 241.152 228.675 240.163 228.88C238.582 229.204 237.161 230.063 236.139 231.313C235.117 232.562 234.557 234.126 234.554 235.74V486.87C234.556 488.726 235.294 490.506 236.606 491.818C237.918 493.13 239.698 493.868 241.554 493.87H681.554C683.409 493.868 685.189 493.13 686.501 491.818C687.813 490.506 688.552 488.726 688.554 486.87V235.74C688.557 233.908 687.838 232.147 686.554 230.84V230.84ZM686.554 486.87C686.553 488.196 686.026 489.468 685.089 490.405C684.151 491.343 682.879 491.87 681.554 491.87H241.554C240.228 491.87 238.956 491.343 238.019 490.405C237.081 489.468 236.554 488.196 236.554 486.87V235.74C236.554 234.905 236.764 234.082 237.164 233.349C237.564 232.615 238.141 231.993 238.844 231.54C239.338 231.224 239.882 230.994 240.453 230.86C240.622 230.824 240.792 230.797 240.964 230.78C241.159 230.752 241.356 230.739 241.554 230.74C242.264 230.741 242.967 230.895 243.614 231.19L285.953 250.38L344.513 276.92L360.973 284.38L363.643 285.59L433.334 317.18L443.154 321.63L458.663 328.66C459.572 329.071 460.557 329.283 461.554 329.283C462.55 329.283 463.535 329.071 464.444 328.66L479.953 321.63L528.493 299.63L573.734 279.12L679.493 231.19C680.254 230.845 681.09 230.697 681.923 230.758C682.756 230.819 683.561 231.088 684.263 231.54C684.344 231.588 684.421 231.641 684.493 231.7C684.573 231.752 684.647 231.812 684.714 231.88C685.289 232.346 685.753 232.934 686.071 233.602C686.389 234.27 686.554 235 686.553 235.74L686.554 486.87ZM523.643 299.63L475.103 321.63L463.614 326.84C462.966 327.132 462.264 327.283 461.554 327.283C460.843 327.283 460.141 327.132 459.494 326.84L448.004 321.63H443.154L458.663 328.66C459.572 329.071 460.557 329.283 461.554 329.283C462.55 329.283 463.535 329.071 464.444 328.66L479.953 321.63L528.493 299.63H523.643ZM523.643 299.63L475.103 321.63L463.614 326.84C462.966 327.132 462.264 327.283 461.554 327.283C460.843 327.283 460.141 327.132 459.494 326.84L448.004 321.63H443.154L458.663 328.66C459.572 329.071 460.557 329.283 461.554 329.283C462.55 329.283 463.535 329.071 464.444 328.66L479.953 321.63L528.493 299.63H523.643ZM360.973 284.38L363.643 285.59V283.41L360.973 284.38ZM523.643 299.63L475.103 321.63L463.614 326.84C462.966 327.132 462.264 327.283 461.554 327.283C460.843 327.283 460.141 327.132 459.494 326.84L448.004 321.63H443.154L458.663 328.66C459.572 329.071 460.557 329.283 461.554 329.283C462.55 329.283 463.535 329.071 464.444 328.66L479.953 321.63L528.493 299.63H523.643Z" fill="#3F3D56"/>
<path d="M175.526 493.87H62.5259C62.2607 493.87 62.0064 493.765 61.8188 493.577C61.6313 493.39 61.5259 493.135 61.5259 492.87C61.5259 492.605 61.6313 492.351 61.8188 492.163C62.0064 491.976 62.2607 491.87 62.5259 491.87H175.526C175.791 491.87 176.045 491.976 176.233 492.163C176.421 492.351 176.526 492.605 176.526 492.87C176.526 493.135 176.421 493.39 176.233 493.577C176.045 493.765 175.791 493.87 175.526 493.87Z" fill="#3F3D56"/>
<path d="M112.388 171.486C110.543 170.549 109.009 169.099 107.971 167.309C106.934 165.519 106.438 163.467 106.542 161.4C106.647 159.334 107.348 157.343 108.561 155.667C109.775 153.991 111.447 152.703 113.377 151.958C120.789 149.098 129.098 154.935 136.867 153.275C144.61 151.621 149.089 142.364 147.241 134.665C145.393 126.965 138.666 121.166 131.248 118.397C126.403 116.592 121.215 115.901 116.067 116.372C110.919 116.844 105.943 118.468 101.507 121.123C97.1165 123.856 93.4603 127.619 90.8558 132.087C88.2513 136.554 86.7773 141.59 86.5621 146.757C86.4612 151.928 87.7246 157.034 90.2252 161.562C92.7257 166.09 96.375 169.879 100.806 172.547C102.78 173.685 105.079 174.599 107.299 174.087C109.122 173.495 110.84 172.617 112.388 171.486V171.486Z" fill="#2F2E41"/>
<path d="M104.428 120.524C97.8929 111.856 89.0707 104.735 78.8048 101.204C68.5389 97.6733 56.8076 97.9567 47.1661 102.946C37.5246 107.936 30.3343 117.845 29.5838 128.675C28.3347 146.7 43.7363 162.021 45.3169 180.02C45.8179 185.725 44.8919 191.465 42.6223 196.723C40.3528 201.981 36.8109 206.592 32.3158 210.14C27.8207 213.689 22.5135 216.063 16.8722 217.05C11.2309 218.037 5.43278 217.605 0 215.793C3.86954 218.978 8.35596 221.329 13.1774 222.697C17.9989 224.066 23.0512 224.422 28.0171 223.744C32.9748 223 37.7048 221.162 41.864 218.364C46.0233 215.565 49.5076 211.876 52.0643 207.563C55.5306 201.541 56.9539 194.545 57.5068 187.618C58.3751 176.666 57.1992 165.647 54.0391 155.125C52.3115 149.384 49.9687 143.476 51.0642 137.581C51.6887 134.515 53.2002 131.7 55.411 129.486C57.6219 127.272 60.4346 125.756 63.4996 125.128C68.453 124.199 73.5174 125.711 78.247 127.451C82.9767 129.191 87.7453 131.204 92.7835 131.319C97.8217 131.435 103.309 129.128 105.256 124.48L104.428 120.524Z" fill="#2F2E41"/>
</g>
<defs>
<clipPath id="clip0_4_99">
<rect width="760.554" height="493.87" fill="white"/>
</clipPath>
</defs>
</svg>
