<svg width="626" height="626" viewBox="0 0 626 626" fill="none" xmlns="http://www.w3.org/2000/svg">
<g clip-path="url(#clip0_5_2)">
<path opacity="0.15" d="M499.21 125.86L625.02 339.06V625.02H323.57L122.58 289.96L499.21 125.86Z" fill="url(#paint0_linear_5_2)"/>
<path d="M499.21 125.86C497.652 124.324 495.671 123.288 493.521 122.884C491.371 122.479 489.15 122.725 487.14 123.59L129.14 280.48C127.281 281.305 125.686 282.626 124.529 284.299C123.371 285.971 122.697 287.93 122.58 289.96C122.477 291.973 122.938 293.975 123.909 295.742C124.88 297.508 126.325 298.969 128.08 299.96L252.9 370.79L327 496.91C327.963 498.551 329.336 499.914 330.984 500.865C332.631 501.817 334.497 502.325 336.4 502.34H337.05C339.067 502.214 341.01 501.536 342.666 500.379C344.323 499.221 345.628 497.63 346.44 495.78L501.56 137.93C502.44 135.917 502.686 133.685 502.266 131.529C501.847 129.373 500.781 127.396 499.21 125.86V125.86ZM442.27 167.09L259.05 349.09L157.89 291.74L442.27 167.09ZM335 467.26L274.61 364.48L458.88 181.42L335 467.26Z" fill="#034A75"/>
</g>
<defs>
<linearGradient id="paint0_linear_5_2" x1="571.06" y1="656.18" x2="300.36" y2="187.31" gradientUnits="userSpaceOnUse">
<stop stop-color="#43ACED" stop-opacity="0"/>
<stop offset="1" stop-color="#231F20"/>
</linearGradient>
<clipPath id="clip0_5_2">
<rect width="625.02" height="625.02" fill="white"/>
</clipPath>
</defs>
</svg>
