<svg width="884" height="608" viewBox="0 0 884 608" fill="none" xmlns="http://www.w3.org/2000/svg">
<path d="M756.926 201H756.724L640.716 250.791L481.993 318.915C481.372 319.178 480.707 319.314 480.034 319.318C479.361 319.321 478.694 319.191 478.071 318.936L314.316 250.649L195.458 201.081L195.276 201H195.074C193.198 201.002 191.4 201.752 190.074 203.085C188.748 204.418 188.002 206.225 188 208.11V516.89C188.002 518.775 188.748 520.582 190.074 521.915C191.4 523.248 193.198 523.998 195.074 524H756.926C758.802 523.998 760.6 523.248 761.926 521.915C763.252 520.582 763.998 518.775 764 516.89V208.11C763.998 206.225 763.252 204.418 761.926 203.085C760.6 201.752 758.802 201.002 756.926 201V201Z" fill="white"/>
<path d="M757.985 203C757.778 203 757.576 202.937 757.406 202.82L476.895 8.91161C476.041 8.32426 475.027 8.01036 473.988 8.01211C472.95 8.01387 471.936 8.33119 471.085 8.92143L192.594 202.818C192.374 202.97 192.101 203.029 191.837 202.983C191.573 202.936 191.338 202.787 191.184 202.569C191.03 202.351 190.969 202.081 191.015 201.819C191.061 201.556 191.21 201.323 191.429 201.169L469.92 7.27272C471.112 6.44652 472.531 6.00238 473.985 6.00001C475.439 5.99764 476.859 6.43714 478.054 7.25945L758.566 201.167C758.743 201.289 758.876 201.465 758.946 201.668C759.015 201.871 759.018 202.09 758.953 202.295C758.889 202.499 758.76 202.678 758.586 202.805C758.411 202.932 758.201 203 757.985 203H757.985Z" fill="#3F3D56"/>
<path d="M209 210.09L473.496 14L740 224.042L487.124 374L349.835 342.697L209 210.09Z" fill="#E6E6E6"/>
<path d="M377.096 452H250.904C249.341 452.002 247.84 451.425 246.733 450.395C245.626 449.365 245.002 447.967 245 446.508C244.998 445.049 245.617 443.65 246.721 442.617C247.825 441.584 249.323 441.002 250.887 441H377.096C378.659 440.998 380.16 441.575 381.267 442.605C382.374 443.635 382.998 445.033 383 446.492C383.002 447.951 382.383 449.35 381.279 450.383C380.175 451.416 378.677 451.998 377.113 452H377.096Z" fill="#6C63FF"/>
<path d="M296.1 427H250.892C249.331 427.001 247.834 426.423 246.729 425.393C245.624 424.364 245.002 422.966 245 421.508C244.998 420.05 245.615 418.651 246.717 417.618C247.818 416.585 249.314 416.003 250.874 416H296.1C296.874 415.998 297.64 416.139 298.355 416.414C299.07 416.69 299.72 417.094 300.268 417.604C300.816 418.114 301.251 418.72 301.548 419.387C301.845 420.054 301.999 420.769 302 421.492C302.001 422.214 301.85 422.93 301.555 423.598C301.26 424.266 300.827 424.873 300.28 425.385C299.734 425.896 299.085 426.302 298.371 426.579C297.657 426.856 296.891 426.999 296.118 427H296.1Z" fill="#6C63FF"/>
<path d="M477.49 319C476.494 319.001 475.508 318.809 474.586 318.435L311 251.029V40.0373C311.002 38.1715 311.75 36.3829 313.078 35.0636C314.406 33.7443 316.208 33.0022 318.086 33H631.914C633.792 33.0022 635.594 33.7443 636.922 35.0636C638.25 36.3829 638.998 38.1715 639 40.0373V251.176L638.693 251.307L480.483 318.402C479.535 318.797 478.518 319.001 477.49 319V319Z" fill="white"/>
<path d="M477.483 321C476.424 321.001 475.375 320.795 474.395 320.392L311 252.152V38.6186C311.002 36.5987 311.8 34.6622 313.219 33.234C314.638 31.8057 316.562 31.0023 318.569 31H631.431C633.438 31.0023 635.362 31.8057 636.781 33.234C638.2 34.6622 638.998 36.5987 639 38.6186V252.296L480.664 320.355C479.657 320.782 478.575 321.001 477.483 321V321ZM313.018 250.795L475.165 318.514C476.677 319.131 478.371 319.121 479.876 318.485L636.982 250.955V38.6186C636.98 37.1374 636.394 35.7174 635.354 34.67C634.313 33.6226 632.902 33.0335 631.431 33.0317H318.569C317.098 33.0335 315.687 33.6226 314.646 34.67C313.606 35.7174 313.02 37.1374 313.018 38.6186L313.018 250.795Z" fill="#3F3D56"/>
<path d="M755.914 201H755.711L639.502 250.791L480.503 318.915C479.882 319.178 479.215 319.314 478.541 319.318C477.867 319.321 477.199 319.191 476.575 318.936L312.535 250.649L193.471 201.081L193.289 201H193.086C191.207 201.002 189.406 201.752 188.078 203.085C186.749 204.418 186.002 206.225 186 208.11V516.89C186.002 518.775 186.749 520.582 188.078 521.915C189.406 523.248 191.207 523.998 193.086 524H755.914C757.793 523.998 759.594 523.248 760.922 521.915C762.251 520.582 762.998 518.775 763 516.89V208.11C762.998 206.225 762.251 204.418 760.922 203.085C759.594 201.752 757.793 201.002 755.914 201V201ZM760.975 516.89C760.975 518.237 760.442 519.528 759.492 520.48C758.543 521.433 757.256 521.968 755.914 521.969H193.086C191.744 521.968 190.457 521.433 189.508 520.48C188.558 519.528 188.025 518.237 188.025 516.89V208.11C188.026 206.797 188.534 205.535 189.441 204.588C190.349 203.642 191.586 203.084 192.894 203.031L312.535 252.842L475.796 320.815C477.563 321.536 479.544 321.525 481.303 320.784L639.502 252.995L756.117 203.031C757.422 203.088 758.656 203.647 759.561 204.593C760.466 205.539 760.972 206.799 760.975 208.11V516.89Z" fill="#3F3D56"/>
<path d="M452.82 112H340.18C338.01 111.997 335.929 111.206 334.395 109.8C332.862 108.393 332 106.487 332 104.5C332 102.513 332.862 100.607 334.395 99.2004C335.929 97.7942 338.01 97.0028 340.18 97H452.82C454.99 97.0028 457.071 97.7942 458.605 99.2004C460.139 100.607 461 102.513 461 104.5C461 106.487 460.139 108.393 458.605 109.8C457.071 111.206 454.99 111.997 452.82 112V112Z" fill="#6C63FF"/>
<path d="M395.652 78H340.348C338.134 78 336.011 77.1045 334.445 75.5104C332.88 73.9164 332 71.7543 332 69.5C332 67.2457 332.88 65.0836 334.445 63.4896C336.011 61.8955 338.134 61 340.348 61H395.652C397.866 61 399.989 61.8955 401.555 63.4896C403.12 65.0836 404 67.2457 404 69.5C404 71.7543 403.12 73.9164 401.555 75.5104C399.989 77.1045 397.866 78 395.652 78V78Z" fill="#6C63FF"/>
<path d="M556.924 192H387.076C384.933 191.997 382.879 191.206 381.365 189.8C379.851 188.393 379 186.487 379 184.5C379 182.513 379.851 180.607 381.365 179.2C382.879 177.794 384.933 177.003 387.076 177H556.924C559.067 177.003 561.121 177.794 562.635 179.2C564.149 180.607 565 182.513 565 184.5C565 186.487 564.149 188.393 562.635 189.8C561.121 191.206 559.067 191.997 556.924 192V192Z" fill="#CCCCCC"/>
<path d="M556.913 230H387.087C384.942 230 382.885 229.21 381.369 227.803C379.852 226.397 379 224.489 379 222.5C379 220.511 379.852 218.603 381.369 217.197C382.885 215.79 384.942 215 387.087 215H556.913C559.058 215 561.115 215.79 562.631 217.197C564.148 218.603 565 220.511 565 222.5C565 224.489 564.148 226.397 562.631 227.803C561.115 229.21 559.058 230 556.913 230V230Z" fill="#CCCCCC"/>
<path d="M751 283C794.078 283 829 248.078 829 205C829 161.922 794.078 127 751 127C707.922 127 673 161.922 673 205C673 248.078 707.922 283 751 283Z" fill="#6C63FF"/>
<path d="M743.574 237L721 207.796L734.128 197.523L744.816 211.351L780.925 173L793 184.51L743.574 237Z" fill="white"/>
</svg>
