<svg width="351" height="335" viewBox="0 0 351 335" fill="none" xmlns="http://www.w3.org/2000/svg">
<path d="M338.85 67.47L148.53 22.8L92.53 261.27L282.81 305.93L338.85 67.47Z" fill="#034A75"/>
<path d="M315.3 51.14L120.8 31.78L96.53 275.53L291.04 294.89L315.3 51.14Z" fill="#C98C48"/>
<path d="M299.21 49.22L101.6 37.47L87.97 266.97L285.58 278.7L299.21 49.22Z" fill="white"/>
<path d="M140.53 54.86L121.53 53.73L120.41 72.73L139.41 73.86L140.53 54.86Z" fill="#CCE9FF"/>
<path d="M138.36 91.34L119.36 90.21L118.24 109.21L137.24 110.34L138.36 91.34Z" fill="#CCE9FF"/>
<path d="M136.25 126.99L117.25 125.86L116.13 144.86L135.13 145.98L136.25 126.99Z" fill="#CCE9FF"/>
<path d="M134.14 162.47L115.14 161.35L114.02 180.35L133.02 181.48L134.14 162.47Z" fill="#CCE9FF"/>
<path d="M131.87 200.57L112.87 199.45L111.74 218.45L130.74 219.58L131.87 200.57Z" fill="#CCE9FF"/>
<path d="M267.53 64.47L152.7 57.68L152.41 62.48L267.27 69.29L267.53 64.47Z" fill="#CCE9FF"/>
<path d="M242.76 73.47L152.09 68.09L151.8 72.88L242.53 78.29L242.76 73.47Z" fill="#CCE9FF"/>
<path d="M255.2 100.16L150.53 93.94L150.24 98.74L254.88 104.95L255.2 100.16Z" fill="#CCE9FF"/>
<path d="M262.29 111.03L149.94 104.37L149.65 109.16L262.01 115.83L262.29 111.03Z" fill="#CCE9FF"/>
<path d="M263.25 137.04L148.39 130.23L148.11 135.02L262.97 141.84L263.25 137.04Z" fill="#CCE9FF"/>
<path d="M249.71 146.71L147.77 140.65L147.45 146.07L249.38 152.12L249.71 146.71Z" fill="#CCE9FF"/>
<path d="M243.18 172.24L146.25 166.47L145.96 171.26L242.89 177.02L243.18 172.24Z" fill="#CCE9FF"/>
<path d="M260.47 183.74L145.62 176.92L145.33 181.71L260.19 188.53L260.47 183.74Z" fill="#CCE9FF"/>
<path d="M258.95 209.59L144.09 202.77L143.81 207.56L258.66 214.38L258.95 209.59Z" fill="#CCE9FF"/>
<path d="M229.76 218.3L143.46 213.18L143.18 217.97L229.48 223.1L229.76 218.3Z" fill="#CCE9FF"/>
<path d="M90.15 137.31C90.15 137.31 106.94 130.21 110.15 128.46C113.36 126.71 116.46 94.07 116.54 89.74L122.39 91.2C122.39 91.2 122.03 129.02 118.07 133.64C114.11 138.26 93.82 149.03 93.82 149.03L90.15 137.31Z" fill="#FCD2B1"/>
<path d="M114.18 87.17C114.18 87.17 114.77 90.26 116.71 90.54C118.65 90.82 116.71 87.17 116.71 87.17H114.18Z" fill="#FCD2B1"/>
<path d="M112.64 81.68C113.18 81.77 130.99 90.54 130.99 90.54L129.43 94.23L111.07 85.75L112.64 81.68Z" fill="#0B4870"/>
<path d="M116.75 90.56C116.75 90.56 115.04 84.56 116.69 83.9C118.34 83.24 122.95 83.44 123.79 85.46C124.63 87.48 123.14 89.89 122.31 91.27C121.48 92.65 117.13 92.12 116.75 90.56Z" fill="#FCD2B1"/>
<path d="M129.43 94.23H133.43L130.94 90.54L129.43 94.23Z" fill="#FFBE55"/>
<path d="M129.91 70.13L121.6 61.78L125.29 58.08L129.72 62.55L142.39 48.55L146.26 52.04L129.91 70.13Z" fill="#FFBE55"/>
<path d="M129.91 106.26L121.6 97.91L125.29 94.21L129.72 98.68L142.39 84.68L146.26 88.16L129.91 106.26Z" fill="#FFBE55"/>
<path d="M124.27 144.27L115.96 135.91L119.65 132.22L124.08 136.69L136.76 122.69L140.62 126.18L124.27 144.27Z" fill="#FFBE55"/>
<path d="M124.27 177.47L115.96 169.12L119.65 165.42L124.08 169.89L136.76 155.89L140.62 159.37L124.27 177.47Z" fill="#FFBE55"/>
<path d="M122.18 218.4L113.87 210.05L117.56 206.35L121.99 210.82L134.67 196.82L138.53 200.27L122.18 218.4Z" fill="#FFBE55"/>
<path d="M100.25 305.47C95.41 299.33 84.25 298.77 82.48 298.85C81.04 299.35 79.64 299.85 78.33 300.25C76.7711 300.976 75.1558 301.575 73.5 302.04C73.59 303.84 73.63 304.89 73.63 304.89L100.25 305.47Z" fill="#0B4870"/>
<path d="M117.4 274.57C114.899 275.069 112.35 275.287 109.8 275.22C109.8 277.75 109.73 280.05 109.69 281.93C111.902 281.792 114.097 281.458 116.25 280.93C116.37 280.28 116.83 277.9 117.4 274.57Z" fill="#FCD2B1"/>
<path d="M54.53 149.47C54.53 149.47 42.42 181.17 42.63 188.27C42.84 195.37 67.69 218.76 67.69 218.76L68.53 211.47C68.53 211.47 50.15 193.93 52.45 184.53C54.75 175.13 64.29 154.35 64.29 154.35L54.53 149.47Z" fill="#FCD2B1"/>
<path d="M131.37 290.19C126.37 282.09 116.21 281.09 116.21 281.09C116.214 281.033 116.214 280.977 116.21 280.92C114.055 281.435 111.861 281.769 109.65 281.92C109.57 285.09 109.51 287.09 109.51 287.09L131.37 290.19Z" fill="#0B4870"/>
<path d="M51.87 154.81C51.87 154.81 55.27 140.34 63.02 141.26C70.77 142.18 61.02 162.37 61.02 162.37L51.87 154.81Z" fill="#C98C48"/>
<path d="M82.53 298.82C82.2354 298.823 81.9426 298.867 81.66 298.95C81.66 298.95 81.66 296.95 81.76 293.72C79.46 295.52 76.35 295.9 73.28 295.94C73.39 298.4 73.49 300.49 73.55 302.04C75.2045 301.567 76.8194 300.965 78.38 300.24C79.66 299.78 81.06 299.32 82.53 298.82Z" fill="#FCD2B1"/>
<path d="M83.05 243.77C82.21 231.39 83.05 181.58 83.05 181.58H61.35C61.35 181.58 61.68 190.79 62.87 201.86C64.5 216.86 67.22 235.34 67.87 238.86C68.72 243.27 70.37 278.25 71.21 297.34C75.47 297.25 79.75 296.75 82.92 294.27C83.23 280.97 83.67 253.09 83.05 243.77Z" fill="#0B4870"/>
<path d="M119.53 274.16C121.68 261.16 124.79 237.8 121.01 228.24C115.67 214.66 90.01 182.55 90.01 182.55H74.85C70.76 181.95 70.94 192.12 80.24 205.46C86.5 214.46 100.99 225.78 105.63 232.88C108.78 237.71 109.18 259.49 109.05 275.09C112.567 275.164 116.081 274.852 119.53 274.16V274.16Z" fill="#0B4870"/>
<path d="M63.02 130.65L65.42 142.37L74.92 142.1L72.53 130.65H63.02Z" fill="#FCD2B1"/>
<path d="M74.84 117.56C74.84 117.56 81.1 133.14 74.84 136.56C68.58 139.98 62.12 134.81 61.93 131.22C61.74 127.63 58.24 119.96 58.24 119.96L74.84 117.56Z" fill="#FCD2B1"/>
<path d="M65.61 127.62H67.36L64.96 120.25C64.96 120.25 75.96 119.52 76.3 115.45C76.64 111.38 69.49 112.78 64.04 112.78C57.13 112.78 55.84 117.58 55.84 117.58C55.84 117.58 55.06 117.39 55.84 121.82C56.84 127.62 63.02 136.58 66.26 136.58C67.91 136.58 64.42 132.16 64.42 132.16L64.04 129.21C64.04 129.21 61.64 125.81 62.48 125.21C63.32 124.61 65.61 127.62 65.61 127.62Z" fill="#0B4870"/>
<path d="M63.02 141.26C63.02 141.26 80.31 137.13 83.55 141.09C86.79 145.05 90.02 182.47 90.02 182.47L60.58 195.84C60.58 195.84 55.53 152.52 63.02 141.26Z" fill="#C98C48"/>
<path d="M90.44 136.71C90.44 136.71 76.66 138.96 78.01 144.06C79.36 149.16 87.74 154.67 97.53 151.47L90.44 136.71Z" fill="#C98C48"/>
</svg>
