<svg id="Layer_1" data-name="Layer 1" xmlns="http://www.w3.org/2000/svg" viewBox="0 0 350.71 334.47"><path d="M153.9,330.05c-13.45-9.32-53.31-36.9-52.41-71.63.6-23.33,19.17-35,21.09-75.39.42-8.6-.19-13.45.62-33.41,1.53-38,4.6-43.44,7.1-46.57,9.86-12.3,26.5-7.93,49.29-11.07,39.26-5.4,44.44-25.93,86.24-44.68,18.71-8.4,75.22-33.75,124.88-9.61,25.46,12.38,52.65,39.49,56.38,71.63,3.24,27.79-14.34,31-13.57,70.37.23,11.59,4.2,31.18,12.11,70.38,6.23,30.8,6.81,30.46,6.48,33.41C446,337.13,258,402.13,153.9,330.05Z" transform="translate(-101.47 -27.53)" style="fill:#f2f2f2"/><path d="M440.32,95,250,50.33l-56,238.47,190.28,44.66Z" transform="translate(-101.47 -27.53)" style="fill:#0b4870"/><path d="M416.77,78.67,222.27,59.31,198,303.06l194.51,19.36Z" transform="translate(-101.47 -27.53)" style="fill:#ffbe55"/><path d="M400.68,76.75,203.07,65l-13.63,229.5,197.61,11.73Z" transform="translate(-101.47 -27.53)" style="fill:#fff"/><path d="M242,82.39l-19-1.13-1.12,19,19,1.13Z" transform="translate(-101.47 -27.53)" style="fill:#cce9ff"/><path d="M239.83,118.87l-19-1.13-1.12,19,19,1.13Z" transform="translate(-101.47 -27.53)" style="fill:#cce9ff"/><path d="M237.72,154.52l-19-1.13-1.12,19,19,1.12Z" transform="translate(-101.47 -27.53)" style="fill:#cce9ff"/><path d="M235.61,190l-19-1.12-1.12,19,19,1.13Z" transform="translate(-101.47 -27.53)" style="fill:#cce9ff"/><path d="M233.34,228.1l-19-1.12-1.13,19,19,1.13Z" transform="translate(-101.47 -27.53)" style="fill:#cce9ff"/><path d="M369,92,254.17,85.21l-.29,4.8,114.86,6.81Z" transform="translate(-101.47 -27.53)" style="fill:#cce9ff"/><path d="M344.23,101l-90.67-5.38-.29,4.79L344,105.82Z" transform="translate(-101.47 -27.53)" style="fill:#cce9ff"/><path d="M356.67,127.69,252,121.47l-.29,4.8,104.64,6.21Z" transform="translate(-101.47 -27.53)" style="fill:#cce9ff"/><path d="M363.76,138.56,251.41,131.9l-.29,4.79,112.36,6.67Z" transform="translate(-101.47 -27.53)" style="fill:#cce9ff"/><path d="M364.72,164.57l-114.86-6.81-.28,4.79,114.86,6.82Z" transform="translate(-101.47 -27.53)" style="fill:#cce9ff"/><path d="M351.18,174.24l-101.94-6.06-.32,5.42,101.93,6.05Z" transform="translate(-101.47 -27.53)" style="fill:#cce9ff"/><path d="M344.65,199.77,247.72,194l-.29,4.79,96.93,5.76Z" transform="translate(-101.47 -27.53)" style="fill:#cce9ff"/><path d="M361.94,211.27l-114.85-6.82-.29,4.79,114.86,6.82Z" transform="translate(-101.47 -27.53)" style="fill:#cce9ff"/><path d="M360.42,237.12,245.56,230.3l-.28,4.79,114.85,6.82Z" transform="translate(-101.47 -27.53)" style="fill:#cce9ff"/><path d="M331.23,245.83l-86.3-5.12-.28,4.79,86.3,5.13Z" transform="translate(-101.47 -27.53)" style="fill:#cce9ff"/><path d="M191.62,164.84s16.79-7.1,20-8.85,6.31-34.39,6.39-38.72l5.85,1.46s-.36,37.82-4.32,42.44-24.25,15.39-24.25,15.39Z" transform="translate(-101.47 -27.53)" style="fill:#fcd2b1"/><path d="M215.65,114.7s.59,3.09,2.53,3.37,0-3.37,0-3.37Z" transform="translate(-101.47 -27.53)" style="fill:#fcd2b1"/><path d="M214.11,109.21c.54.09,18.35,8.86,18.35,8.86l-1.56,3.69-18.36-8.48Z" transform="translate(-101.47 -27.53)" style="fill:#0b4870"/><path d="M218.22,118.09s-1.71-6-.06-6.66,6.26-.46,7.1,1.56-.65,4.43-1.48,5.81S218.6,119.65,218.22,118.09Z" transform="translate(-101.47 -27.53)" style="fill:#fcd2b1"/><path d="M230.9,121.76h4l-2.49-3.69Z" transform="translate(-101.47 -27.53)" style="fill:#ffbe55"/><path d="M231.38,97.66l-8.31-8.35,3.69-3.7,4.43,4.47,12.67-14,3.87,3.49Z" transform="translate(-101.47 -27.53)" style="fill:#ffbe55"/><path d="M231.38,133.79l-8.31-8.35,3.69-3.7,4.43,4.47,12.67-14,3.87,3.48Z" transform="translate(-101.47 -27.53)" style="fill:#ffbe55"/><path d="M225.74,171.8l-8.31-8.36,3.69-3.69,4.43,4.47,12.68-14,3.86,3.49Z" transform="translate(-101.47 -27.53)" style="fill:#ffbe55"/><path d="M225.74,205l-8.31-8.35,3.69-3.7,4.43,4.47,12.68-14,3.86,3.48Z" transform="translate(-101.47 -27.53)" style="fill:#ffbe55"/><path d="M223.65,245.93l-8.31-8.35,3.69-3.7,4.43,4.47,12.68-14L240,227.8Z" transform="translate(-101.47 -27.53)" style="fill:#ffbe55"/><path d="M201.72,333c-4.84-6.14-16-6.7-17.77-6.62-1.44.5-2.84,1-4.15,1.4a31.8,31.8,0,0,1-4.83,1.79c.09,1.8.13,2.85.13,2.85Z" transform="translate(-101.47 -27.53)" style="fill:#0b4870"/><path d="M218.87,302.1a34.2,34.2,0,0,1-7.6.65c0,2.53-.07,4.83-.11,6.71a37.29,37.29,0,0,0,6.56-1C217.84,307.81,218.3,305.43,218.87,302.1Z" transform="translate(-101.47 -27.53)" style="fill:#fcd2b1"/><path d="M156,177s-12.11,31.7-11.9,38.8,25.06,30.49,25.06,30.49L170,239s-18.38-17.54-16.08-26.94,11.84-30.18,11.84-30.18Z" transform="translate(-101.47 -27.53)" style="fill:#fcd2b1"/><path d="M232.84,317.72c-5-8.1-15.16-9.1-15.16-9.1a1.37,1.37,0,0,0,0-.17,39.89,39.89,0,0,1-6.56,1c-.08,3.17-.14,5.17-.14,5.17Z" transform="translate(-101.47 -27.53)" style="fill:#0b4870"/><path d="M153.34,182.34s3.4-14.47,11.15-13.55-2,21.11-2,21.11Z" transform="translate(-101.47 -27.53)" style="fill:#ffbe55"/><path d="M184,326.35a3.19,3.19,0,0,0-.87.13s0-2,.1-5.23c-2.3,1.8-5.41,2.18-8.48,2.22.11,2.46.21,4.55.27,6.1a33,33,0,0,0,4.83-1.8C181.13,327.31,182.53,326.85,184,326.35Z" transform="translate(-101.47 -27.53)" style="fill:#fcd2b1"/><path d="M184.52,271.3c-.84-12.38,0-62.19,0-62.19H162.82s.33,9.21,1.52,20.28c1.63,15,4.35,33.48,5,37,.85,4.41,2.5,39.39,3.34,58.48,4.26-.09,8.54-.59,11.71-3.07C184.7,308.5,185.14,280.62,184.52,271.3Z" transform="translate(-101.47 -27.53)" style="fill:#0b4870"/><path d="M221,301.69c2.15-13,5.26-36.36,1.48-45.92-5.34-13.58-31-45.69-31-45.69l-15.16,0c-4.09-.6-3.91,9.57,5.39,22.91,6.26,9,20.75,20.32,25.39,27.42,3.15,4.83,3.55,26.61,3.42,42.21A48.17,48.17,0,0,0,221,301.69Z" transform="translate(-101.47 -27.53)" style="fill:#0b4870"/><path d="M164.49,158.18l2.4,11.72,9.5-.27L174,158.18Z" transform="translate(-101.47 -27.53)" style="fill:#fcd2b1"/><path d="M176.31,145.09s6.26,15.58,0,19-12.72-1.75-12.91-5.34-3.69-11.26-3.69-11.26Z" transform="translate(-101.47 -27.53)" style="fill:#fcd2b1"/><path d="M167.08,155.15h1.75l-2.4-7.37s11-.73,11.34-4.8-6.81-2.67-12.26-2.67c-6.91,0-8.2,4.8-8.2,4.8s-.78-.19,0,4.24c1,5.8,7.18,14.76,10.42,14.76,1.65,0-1.84-4.42-1.84-4.42l-.38-2.95s-2.4-3.4-1.56-4S167.08,155.15,167.08,155.15Z" transform="translate(-101.47 -27.53)" style="fill:#0b4870"/><path d="M164.49,168.79s17.29-4.13,20.53-.17S191.49,210,191.49,210l-29.44,13.37S157,180.05,164.49,168.79Z" transform="translate(-101.47 -27.53)" style="fill:#ffbe55"/><path d="M191.91,164.24s-13.78,2.25-12.43,7.35S189.21,182.2,199,179Z" transform="translate(-101.47 -27.53)" style="fill:#ffbe55"/></svg>