<svg xmlns="http://www.w3.org/2000/svg" xmlns:xlink="http://www.w3.org/1999/xlink" viewBox="0 0 625.02 625.02"><defs xmlns="http://www.w3.org/2000/svg"><style>.cls-1{opacity:0.15;fill:url(#linear-gradient);}.cls-2{fill:#2a94f4;}</style><linearGradient id="linear-gradient" x1="571.06" y1="656.18" x2="300.36" y2="187.31" gradientUnits="userSpaceOnUse"><stop offset="0" stop-color="#43aced" stop-opacity="0"/><stop offset="1" stop-color="#231f20"/></linearGradient></defs><title xmlns="http://www.w3.org/2000/svg">Multimedia Icons</title><g xmlns="http://www.w3.org/2000/svg" id="Layer_2" data-name="Layer 2"><polyline class="cls-1" points="499.21 125.86 625.02 339.06 625.02 625.02 323.57 625.02 122.58 289.96 499.21 125.86"/></g><g xmlns="http://www.w3.org/2000/svg" id="Layer_1" data-name="Layer 1"><path class="cls-2" d="M499.21,125.86a11,11,0,0,0-12.07-2.27l-358,156.89a11.07,11.07,0,0,0-6.56,9.48,10.85,10.85,0,0,0,5.5,10L252.9,370.79,327,496.91a11,11,0,0,0,9.4,5.43h.65a11,11,0,0,0,9.39-6.56L501.56,137.93a10.82,10.82,0,0,0-2.35-12.07Zm-56.94,41.23-183.22,182L157.89,291.74ZM335,467.26,274.61,364.48,458.88,181.42Zm0,0"/></g></svg>